<?xml version="1.0" encoding="utf-8"?>
<!-- Generator: Adobe Illustrator 25.4.1, SVG Export Plug-In . SVG Version: 6.00 Build 0)  -->
<svg version="1.1" id="Layer_1" xmlns="http://www.w3.org/2000/svg" xmlns:xlink="http://www.w3.org/1999/xlink" x="0px" y="0px"
	 viewBox="0 0 200 200" style="enable-background:new 0 0 200 200;" xml:space="preserve">
<path d="M83.9,114.9c-2.4,14.6-4.9,29.3-7.3,44c-10.3,0-20.5,0-30.9,0c0.4-2.6,0.8-5.2,1.2-7.7c1.4-8.1,2.7-16.2,4.1-24.2
	c1.4-8.1,2.7-16.1,4.1-24.2c1.6-9.4,3.1-18.8,4.7-28.2C61.4,63.7,63.2,52.9,65,42c0.2-1,0.8-1,1.5-1c12,0,24,0,36,0
	c5.5,0,11.1-0.2,16.6,0.1c12.9,0.6,22.9,6.5,29.9,17.4c4.3,6.8,5.9,14.3,5.4,22.3c-1,14.6-11.6,28.5-27.3,32.6c-1,0.3-1.5,0.1-2-0.8
	c-2.1-3.4-4.4-6.7-5.6-10.6c-3.4-11.3,0.8-23.4,10.6-30.1c0.9-0.6,1.8-1.2,2.8-1.8c-1.1-1.6-2.1-3.3-3.2-5c-0.7,0.5-1.4,0.9-2,1.3
	c-12.8,8-29.1,4.4-37.2-8.3c-1.1-1.7-2.2-3.4-3.4-5.2c-1.7,1.1-3.3,2.1-5,3.1c0.5,0.8,0.9,1.5,1.4,2.2C85.8,62,88,65.8,89,70.2
	c2.3,10.8-1.9,21.7-11,28c-0.9,0.6-1.8,1.2-2.8,1.9c0.5,0.9,1,1.7,1.6,2.5c0.5,0.8,1,1.6,1.6,2.5c0.8-0.5,1.4-0.9,2.1-1.4
	c13-8,29.4-4.2,37.3,8.8c7.5,12.4,14.9,24.9,22.3,37.3c1.6,2.7,3.2,5.3,4.8,8c0.2,0.3,0.4,0.7,0.6,1.1c-0.5,0-0.9,0.1-1.3,0.1
	c-10.6,0-21.2,0-31.8,0c-0.9,0-1.3-0.3-1.7-1c-7.4-13.7-14.9-27.4-22.4-41.1C86.9,114.4,86.8,114.4,83.9,114.9z"/>
</svg>
