<?xml version="1.0" encoding="utf-8"?>
<!-- Generator: Adobe Illustrator 25.4.1, SVG Export Plug-In . SVG Version: 6.00 Build 0)  -->
<svg version="1.1" id="Layer_1" xmlns="http://www.w3.org/2000/svg" xmlns:xlink="http://www.w3.org/1999/xlink" x="0px" y="0px"
	 viewBox="0 0 151.5 196" style="enable-background:new 0 0 151.5 196;" xml:space="preserve">
<path d="M96.3,98c-8.1-8-15.5-15.1-22.8-22.4c-14.1-14-28.1-28-42-42.1c-2-2.1-3.9-4.6-4.9-7.3c-1.9-5.1,0.7-11,5.2-13.9
	c4.7-3,11.1-2.2,15.5,2.2C67.8,35,88.3,55.5,108.8,76c4.1,4.1,8.3,8.2,12.3,12.4c6.3,6.6,6.2,12.9-0.5,19.6
	c-21.8,22-43.8,43.8-65.7,65.7c-2.6,2.6-5.1,5.2-7.8,7.7c-5.4,5.1-12.3,5.2-17.4,0.4c-5.2-5-5.4-12,0.2-17.8
	c11.4-11.7,23-23.2,34.5-34.7C74.7,119.2,85.1,109.1,96.3,98z"/>
</svg>
