<?xml version="1.0" encoding="utf-8"?>
<!-- Generator: Adobe Illustrator 25.4.1, SVG Export Plug-In . SVG Version: 6.00 Build 0)  -->
<svg version="1.1" id="Layer_1" xmlns="http://www.w3.org/2000/svg" xmlns:xlink="http://www.w3.org/1999/xlink" x="0px" y="0px"
	 viewBox="0 0 314 212" style="enable-background:new 0 0 314 212;" xml:space="preserve">
<path d="M119.8,157.2c12.1-12.2,23.8-24,35.6-35.8c29.9-30,59.8-59.9,89.7-89.8c4.5-4.5,9.2-8.4,16.3-5.6c6.9,2.7,10,10.3,6.4,16.8
	c-1.4,2.6-3.5,4.8-5.6,6.9c-43.5,43.5-87,86.9-130.5,130.3c-2.2,2.2-4.6,4.6-7.4,5.8c-5.5,2.6-10.4,0.6-14.5-3.5
	C89.5,162,69.2,141.8,49,121.5c-5.4-5.4-5.6-12.4-0.9-17.4c4.8-5.2,12.1-5.5,17.9-0.1c7.6,7,14.7,14.5,22.1,21.7
	c9.3,9.3,18.6,18.6,27.9,27.9C117,154.7,118.1,155.7,119.8,157.2z"/>
</svg>
