<?xml version="1.0" encoding="utf-8"?>
<!-- Generator: Adobe Illustrator 25.4.1, SVG Export Plug-In . SVG Version: 6.00 Build 0)  -->
<svg version="1.1" id="Layer_1" xmlns="http://www.w3.org/2000/svg" xmlns:xlink="http://www.w3.org/1999/xlink" x="0px" y="0px"
	 viewBox="0 0 534 335.1" style="enable-background:new 0 0 534 335.1;" xml:space="preserve">
<style type="text/css">
	.st0{fill:#FF0000;}
</style>
<g>
	<g>
		<path d="M403.7,280.6H51.6c0-31.1,0-62.2,0-93.3c0-6.4,0-12.8,0-19.2c0-7.5,0.7-47.4,33-79.6c20.4-20.4,48.5-33,79.6-33h239.6
			c62.1,0,112.5,50.4,112.5,112.5v0C516.2,230.2,465.8,280.6,403.7,280.6z"/>
		<path d="M64.2,263.1c-1.7,0-2.1,0.1-3.8,0.1c-0.4-0.6-3.7-1.8-4.1-2.4c1.1-0.6,2.2-2.2,3.1-3c4.9-4.7,1.3-7.4,6.2-12.1
			c2.9-2.8,4.1-6,4.1-10c0-0.2,0-0.4,0-0.6H51.8c-0.5,0.9-1.1,1.7-1.9,2.5c-9.2,9-18.2,18.1-27.3,27.2c-2.2,2.2-3.8,4.5-3.7,7.7
			c0.1,5,3.7,8.2,9.3,8.2c14.1,0,28.2,0,42.4,0v-17C65.1,263.6,69.7,263.1,64.2,263.1z"/>
	</g>
	<g>
		<g>
			<circle class="st0" cx="396.9" cy="167.9" r="86.6" style="fill:#fae0c1"/>
		</g>
		<g>
			<g>
				<g>
					<circle class="st0" cx="167" cy="168.2" r="86.6" style="fill:#bff0db"/>
				</g>
				<path d="M167,176.6c-3.2,3.2-6.2,6.2-9.1,9.1c-1.2,1.2-2.3,2.4-3.6,3.5c-2.6,2.4-6,2.4-8.4,0c-2.3-2.3-2.4-5.8,0-8.4
					c3.4-3.6,7-7,10.4-10.5c0.7-0.7,1.3-1.3,2.2-2.2c-2.3-2.3-4.4-4.4-6.6-6.6c-1.9-1.9-3.9-3.8-5.7-5.8c-2.7-2.8-2.9-6.2-0.5-8.7
					c2.5-2.5,6-2.4,8.9,0.4c3.6,3.5,7.2,7,10.6,10.7c1.3,1.3,2,1.2,3.3,0c3.6-3.8,7.4-7.5,11.2-11.1c2.2-2.1,5.2-2.3,7.4-0.6
					c2.3,1.7,3.3,4.6,2.1,7.2c-0.5,1-1.3,2-2.2,2.8c-3.8,3.9-7.6,7.7-11.6,11.7c0.7,0.8,1.2,1.4,1.8,2c3.4,3.4,6.9,6.9,10.3,10.3
					c2.8,2.9,3,6.4,0.5,8.9c-2.5,2.5-6,2.3-8.9-0.6C175.2,184.8,171.3,180.9,167,176.6z"/>
			</g>
			<g>
				<g>
					<circle class="st0" cx="398.2" cy="168.2" r="36.8" style="fill: #fae0c1"/>
					<path d="M398.2,140.9c15,0,27.3,12.2,27.3,27.3s-12.2,27.3-27.3,27.3s-27.3-12.2-27.3-27.3S383.2,140.9,398.2,140.9
						 M398.2,121.8c-25.6,0-46.4,20.8-46.4,46.4s20.8,46.4,46.4,46.4s46.4-20.8,46.4-46.4S423.8,121.8,398.2,121.8L398.2,121.8z"/>
				</g>
				<path d="M297.9,177.8c19.8,0,39.6,0,59.4,0c1.7,0,3.4,0,5-0.3c4.4-0.8,7.7-4.8,7.7-9.3c0-4.4-3.3-8.5-7.7-9.3
					c-1.5-0.3-3.1-0.3-4.6-0.3c-40,0-80,0-119.9,0c-2,0-4.2,0-6.1,0.7c-4.2,1.3-6.6,5.6-6.1,10c0.5,4.4,3.8,7.7,8.3,8.3
					c1.4,0.2,2.8,0.1,4.2,0.1C258.1,177.8,278,177.8,297.9,177.8z"/>
			</g>
		</g>
	</g>
</g>
</svg>
