<?xml version="1.0" encoding="utf-8"?>
<!-- Generator: Adobe Illustrator 25.4.1, SVG Export Plug-In . SVG Version: 6.00 Build 0)  -->
<svg version="1.1" id="Layer_1" xmlns="http://www.w3.org/2000/svg" xmlns:xlink="http://www.w3.org/1999/xlink" x="0px" y="0px"
	 viewBox="0 0 326 318" style="enable-background:new 0 0 326 318;" xml:space="preserve">
<g>
	<path d="M240.8,218.3c5.2,5,10.5,9.9,15.7,15.1c10.1,10,20.2,19.9,30,30.1c7.1,7.3,4.1,18.4-5.4,21c-5.2,1.4-9.4-0.7-13-4.4
		c-13.6-13.7-27.3-27.3-41-41c-1.2-1.2-2.4-2.3-3.8-3.6c-29.3,21.7-61.6,29.7-97.2,21c-27.7-6.7-49.6-22.2-65.8-45.6
		C28.4,165.1,35.7,103.1,77.6,64.2c39.8-37.1,102.4-38.8,145.9-4.3C265.8,93.6,283.5,162.3,240.8,218.3z M153.3,60
		c-48.5,0-87.7,38.8-87.8,86.9c-0.1,48.8,38.7,88.1,87,88.2c48.7,0.1,88-38.8,88.1-87.2C240.6,99.2,201.7,60,153.3,60z"/>
	<path d="M140.6,159.9c-8.5,0-16.1,0-23.8,0c-7.9-0.1-13.5-5.1-13.6-12.2c-0.1-7.4,5.5-12.6,13.7-12.6c7.3-0.1,14.7,0,22-0.1
		c0.3,0,0.6-0.1,1.7-0.4c0-7.9-0.1-16,0-24.1c0.1-6.9,4.7-12.1,11-12.7c7.7-0.8,13.7,4.7,13.9,12.8c0.1,7.8,0.1,15.7,0.2,23.5
		c0,0.1,0.2,0.3,0.7,1c7.2,0,14.8,0,22.4,0c8.4,0,14,4.9,14.1,12.2c0.1,7.5-5.6,12.6-14.2,12.6c-7.2,0-14.3,0-21.5,0.1
		c-0.3,0-0.6,0.1-1.7,0.4c0,7.9,0.1,16,0,24.1c-0.1,6.7-4.4,11.8-10.5,12.7c-7.8,1.1-14.2-4.5-14.4-12.8
		C140.5,176.4,140.6,168.5,140.6,159.9z"/>
</g>
</svg>
