<?xml version="1.0" encoding="utf-8"?>
<!-- Generator: Adobe Illustrator 25.4.1, SVG Export Plug-In . SVG Version: 6.00 Build 0)  -->
<svg version="1.1" id="Layer_1" xmlns="http://www.w3.org/2000/svg" xmlns:xlink="http://www.w3.org/1999/xlink" x="0px" y="0px"
	 viewBox="0 0 326 318" style="enable-background:new 0 0 326 318;" xml:space="preserve">
<g>
	<path d="M220.9,234.5c-54.1,41.2-122.5,26.6-157.8-17.3c-36-44.7-32.9-108.8,7.3-149.5c40.3-40.9,104-44.9,149.4-9.8
		c44.1,34.1,61,103.7,18.5,159.4c5.2,4.9,10.5,9.9,15.7,15c10.1,10,20.2,19.9,30,30.1c7.1,7.3,4.2,18.4-5.3,21.1
		c-5.2,1.5-9.4-0.6-13-4.3c-13.6-13.7-27.3-27.4-41-41C223.5,237,222.3,235.9,220.9,234.5z M150.2,234c48.5,0,87.8-38.9,87.9-86.9
		c0.1-48.8-38.7-88.2-87.1-88.2c-48.8-0.1-88.1,38.8-88.1,87.2C62.8,194.8,101.7,234,150.2,234z"/>
	<path d="M150.5,134c12,0,24,0,36,0c8.3,0,13.9,5.1,13.9,12.4c0,7.3-5.6,12.5-13.8,12.5c-24,0-48,0-72,0c-8.3,0-13.9-5.1-13.9-12.4
		c0-7.3,5.6-12.4,13.8-12.5C126.5,134,138.5,134,150.5,134z"/>
</g>
</svg>
