<?xml version="1.0" encoding="utf-8"?>
<!-- Generator: Adobe Illustrator 25.4.1, SVG Export Plug-In . SVG Version: 6.00 Build 0)  -->
<svg version="1.1" id="Layer_1" xmlns="http://www.w3.org/2000/svg" xmlns:xlink="http://www.w3.org/1999/xlink" x="0px" y="0px"
	 viewBox="0 0 596 335.1" style="enable-background:new 0 0 596 335.1;" xml:space="preserve">
<style type="text/css">
	.st0{fill:#B2B2B2;}
	.st1{fill:none;stroke:#000000;stroke-width:20.6653;stroke-miterlimit:10;}
</style>
<g>
	<circle class="st0" cx="430.2" cy="168" r="158.2"/>
	<g>
		<g>
			<path d="M370.3,180.4c-3.6,0-5.7,0-7.8,0c-68.8,0-137.6,0-206.5,0c-1.7,0-3.3,0-5,0c-7.8-0.3-13-5.2-13-12.3
				c-0.1-7.1,5.1-12.1,12.8-12.5c1.5-0.1,3,0,4.5,0c69.2,0,138.3,0,207.5,0c2.1,0,4.2,0,6.2,0c0.2-0.5,0.4-0.9,0.6-1.4
				c-7.6-7.4-15.2-14.9-22.8-22.3c-1.8-1.8-3.6-3.5-5.3-5.3c-4.9-5.3-4.7-12.5,0.3-17.5c4.6-4.6,12.1-4.7,17.1,0.2
				c9.8,9.5,19.4,19.3,29.1,28.9c6.8,6.8,13.7,13.6,20.6,20.4c5.8,5.8,5.9,12.8,0.2,18.5c-16.2,16.1-32.3,32.2-48.5,48.3
				c-5.1,5.1-10.3,6.2-15.3,3.5c-8-4.2-9.4-13.3-2.8-20.1c8.1-8.4,16.5-16.5,24.7-24.8C367.6,183.3,368.3,182.5,370.3,180.4z"/>
		</g>
		<circle class="st1" cx="80.9" cy="168" r="62"/>
	</g>
</g>
</svg>
