<?xml version="1.0" encoding="utf-8"?>
<!-- Generator: Adobe Illustrator 25.4.1, SVG Export Plug-In . SVG Version: 6.00 Build 0)  -->
<svg version="1.1" id="Layer_1" xmlns="http://www.w3.org/2000/svg" xmlns:xlink="http://www.w3.org/1999/xlink" x="0px" y="0px"
	 viewBox="0 0 936 335.1" style="enable-background:new 0 0 936 335.1;" xml:space="preserve">
<g>
	<g>
		<path d="M125.3,80.3c-14.1,0.1-28.3,0.2-42.4,0.3c-10.3,0-20.7,0.1-31,0c-8.3-0.1-13.5-4.9-13.4-12.2c0.1-7.5,5.5-12.5,13.8-12.5
			c33.8-0.1,67.6-0.1,101.5,0c2.8,0,5.9,0,8.3,1.1c4.7,2.1,7.4,6,7.4,11.5c-0.1,34.8,0,69.6-0.1,104.5c0,7.4-3.8,12.4-10,13.6
			c-8.1,1.5-14.6-3.9-14.7-12.7c-0.1-22.5-0.1-45-0.1-67.5c0-2.1,0.7-4.3,1.1-6.4c-0.8-0.2-1.5-0.4-2.3-0.6c-1.3,1.3-2.7,2.7-4,4
			c-31.6,31.6-63.2,63.1-94.7,94.7c-1.4,1.4-2.8,2.9-4.4,4c-4.9,3.6-11.8,3-16-1.2c-4.2-4.2-4.7-11.2-1.1-16
			c1.3-1.7,2.9-3.2,4.4-4.8C59,148.6,90.5,117.1,122,85.7c1.3-1.3,2.5-2.5,3.8-3.8C125.6,81.4,125.5,80.8,125.3,80.3z"/>
		<path d="M95.2,280.2c-21.7,0-43.5,0-65.2,0c-7.6,0-12.4-9.2-9.3-17.6c2-5.4,5.5-7.3,9.9-7.3c25,0.1,50,0,75,0
			c17.6,0,35.2,0,52.8,0c7.7,0,12.1,4.5,12.1,12.3c0.1,7.9-4.4,12.6-11.9,12.6C137.4,280.2,116.3,280.2,95.2,280.2z"/>
	</g>
	<g>
		<path d="M584.4,185.6c-6.7,6.7-12.9,12.9-19.1,19.1c-2.5,2.5-4.9,5-7.5,7.4c-5.5,5-12.6,4.9-17.5,0.1c-4.9-4.9-5.1-12.2,0-17.5
			c7.1-7.5,14.5-14.7,21.8-22c1.4-1.4,2.8-2.8,4.6-4.6c-4.8-4.8-9.3-9.3-13.7-13.7c-4-4-8.1-8-12-12c-5.7-5.9-6-13.1-0.9-18.2
			c5.2-5.3,12.5-5,18.6,0.9c7.5,7.3,15,14.7,22.2,22.3c2.6,2.7,4.3,2.6,6.8-0.1c7.6-7.9,15.4-15.7,23.3-23.3
			c4.6-4.4,10.8-4.7,15.6-1.4c4.9,3.5,6.9,9.6,4.3,15c-1,2.2-2.8,4.1-4.5,5.9c-7.9,8.1-16,16-24.3,24.4c1.4,1.6,2.5,3,3.8,4.2
			c7.2,7.2,14.4,14.3,21.5,21.6c5.9,6,6.2,13.4,0.9,18.6c-5.3,5.2-12.5,4.8-18.6-1.2C601.5,202.8,593.3,194.5,584.4,185.6z"/>
		<circle cx="354.9" cy="168" r="105.5"/>
		<circle cx="813.9" cy="168" r="105.5"/>
	</g>
</g>
</svg>
